<?xml version="1.0" standalone="no"?>
<!DOCTYPE svg PUBLIC "-//W3C//DTD SVG 20010904//EN"
 "http://www.w3.org/TR/2001/REC-SVG-20010904/DTD/svg10.dtd">
<svg version="1.0" xmlns="http://www.w3.org/2000/svg"
 width="2336.000000pt" height="2336.000000pt" viewBox="0 0 2336.000000 2336.000000"
 preserveAspectRatio="xMidYMid meet">
<metadata>
Created by potrace 1.14, written by Peter Selinger 2001-2017
</metadata>
<g transform="translate(0.000000,2336.000000) scale(0.100000,-0.100000)"
fill="#000000" stroke="none">
<path d="M12539 20976 c-2 -2 -35 -7 -74 -10 -90 -9 -353 -52 -430 -72 -72
-19 -168 -38 -251 -52 -34 -6 -82 -20 -108 -32 -47 -21 -103 -33 -208 -45 -59
-7 -202 -68 -226 -98 -8 -9 -37 -24 -65 -33 -69 -23 -413 -190 -455 -221 -18
-13 -60 -43 -95 -66 -34 -24 -82 -58 -107 -76 -90 -66 -220 -140 -256 -146
-42 -6 -137 -72 -155 -108 -16 -29 -28 -37 -62 -37 -33 0 -54 -10 -112 -55
l-43 -32 21 -22 c12 -11 16 -21 10 -21 -6 0 -18 7 -27 15 -8 8 -18 15 -23 15
-4 0 -28 -28 -53 -61 -54 -72 -79 -95 -156 -144 -70 -44 -161 -130 -212 -200
-20 -27 -47 -61 -60 -75 -43 -44 -129 -182 -217 -349 -48 -91 -102 -187 -121
-213 -18 -27 -40 -73 -48 -103 -9 -30 -21 -57 -27 -61 -23 -14 -119 -243 -143
-339 -2 -5 -7 -21 -13 -35 -24 -59 -38 -104 -79 -260 -25 -91 -51 -178 -58
-195 -20 -41 -40 -124 -32 -132 3 -3 1 -12 -4 -18 -13 -16 -62 -250 -58 -279
1 -11 -2 -28 -7 -36 -5 -8 -10 -41 -11 -75 -3 -94 -27 -227 -42 -232 -7 -3
-36 4 -64 16 -66 27 -127 27 -162 0 -35 -28 -111 -128 -141 -186 -38 -75 -74
-213 -96 -373 -11 -80 -22 -158 -25 -173 -2 -15 2 -69 10 -120 20 -126 30
-305 29 -539 -1 -171 -3 -204 -22 -260 -11 -34 -40 -153 -65 -263 -40 -180
-50 -233 -61 -315 -2 -14 -7 -45 -11 -70 -13 -84 -5 -227 18 -315 39 -152 120
-214 313 -240 72 -10 81 -14 94 -42 12 -26 10 -30 -23 -61 -27 -24 -32 -34
-22 -38 13 -5 27 -32 41 -81 6 -20 3 -23 -26 -23 -30 0 -31 -1 -17 -17 21 -25
48 -98 48 -132 0 -16 -7 -34 -15 -41 -19 -16 -20 -50 -1 -50 11 0 11 -9 3 -47
-12 -56 -11 -152 3 -168 10 -12 -6 -49 -41 -93 -20 -25 -20 -27 -2 -30 43 -7
44 -10 30 -44 -8 -18 -12 -44 -11 -58 2 -14 4 -50 5 -80 1 -30 7 -58 13 -62 6
-4 3 -14 -9 -28 -18 -20 -18 -21 3 -36 26 -18 28 -50 6 -75 -14 -15 -13 -18
15 -27 16 -6 32 -20 36 -31 3 -12 11 -21 16 -21 6 0 8 -9 4 -19 -21 -67 -22
-124 -2 -155 23 -34 22 -95 0 -112 -17 -12 -16 -13 6 -14 20 0 22 -2 10 -16
-7 -8 -13 -29 -14 -46 -1 -23 4 -32 22 -39 13 -5 22 -13 18 -18 -3 -5 -1 -12
4 -15 5 -3 14 8 21 24 7 17 16 30 20 30 14 0 23 -101 11 -113 -8 -8 -11 -6
-11 9 0 12 -7 21 -15 21 -18 0 -20 -18 -4 -34 8 -8 8 -13 0 -17 -6 -4 -11 -12
-11 -18 0 -7 5 -6 15 2 32 26 36 3 20 -102 -4 -24 -1 -28 20 -28 28 0 29 -3
14 -32 -7 -14 -8 -23 -1 -30 7 -7 7 -19 1 -37 l-10 -26 30 29 c33 31 44 17 14
-16 -21 -23 -27 -89 -10 -100 7 -4 12 -18 12 -30 0 -16 6 -23 18 -22 22 2 21
-2 -3 -34 -16 -20 -18 -27 -8 -34 7 -4 10 -8 6 -8 -4 0 0 -12 8 -27 12 -23 12
-30 1 -37 -11 -7 -9 -14 10 -32 13 -13 23 -30 23 -38 0 -8 10 -16 23 -18 14
-2 21 -9 18 -18 -2 -8 -6 -28 -9 -45 -2 -16 -11 -36 -20 -42 -14 -11 -13 -13
1 -19 13 -5 15 -17 10 -70 -6 -65 -6 -65 18 -59 17 4 31 -1 49 -17 l24 -23
-39 -11 c-35 -9 -37 -12 -18 -18 11 -4 27 -14 35 -23 12 -15 10 -16 -15 -9
-25 6 -26 5 -16 -13 10 -15 18 -17 41 -10 16 4 35 6 41 3 15 -5 15 -53 0 -62
-6 -4 -13 -17 -17 -28 -5 -16 -2 -23 13 -27 11 -2 24 0 30 6 8 8 11 5 11 -9 0
-11 -5 -25 -12 -32 -10 -10 -9 -16 4 -28 13 -14 14 -21 5 -36 -10 -16 -9 -21
6 -29 13 -8 15 -14 7 -29 -5 -10 -10 -31 -10 -46 0 -22 2 -25 15 -14 8 7 15
23 15 36 0 15 6 24 15 24 12 0 14 -10 11 -45 -3 -25 0 -47 5 -51 5 -3 3 -14
-5 -26 -14 -20 -12 -41 7 -65 10 -13 18 -73 18 -129 0 -43 -7 -70 -104 -404
-47 -162 -97 -353 -111 -425 -15 -71 -29 -131 -31 -133 -2 -2 -18 -6 -37 -8
-61 -9 -101 -27 -125 -55 -33 -39 -118 -77 -185 -83 -37 -4 -81 -18 -130 -42
-40 -20 -91 -45 -113 -55 -22 -11 -53 -27 -70 -36 -117 -64 -159 -83 -226
-102 -42 -11 -128 -42 -190 -69 -63 -27 -131 -53 -152 -56 -27 -5 -41 -14 -49
-32 -6 -13 -18 -24 -26 -24 -16 0 -154 -63 -192 -88 -14 -8 -38 -17 -54 -19
-32 -4 -235 -90 -251 -107 -5 -6 -21 -12 -35 -14 -14 -2 -37 -12 -52 -23 -15
-10 -35 -19 -45 -19 -10 0 -43 -12 -73 -26 -31 -15 -72 -26 -95 -26 -22 1 -44
-3 -50 -7 -15 -13 -112 -31 -129 -25 -8 3 -25 -2 -39 -10 -13 -9 -32 -14 -41
-10 -9 3 -16 1 -16 -5 0 -6 -7 -11 -15 -11 -8 0 -15 3 -15 8 0 11 -120 13
-161 2 -20 -6 -59 -28 -87 -50 -52 -42 -149 -89 -231 -114 -27 -8 -61 -21 -77
-29 -16 -8 -56 -20 -88 -27 -33 -7 -76 -21 -97 -32 -21 -11 -82 -25 -136 -33
-123 -17 -284 -52 -343 -75 -25 -9 -65 -20 -90 -24 -25 -4 -101 -29 -170 -56
-138 -54 -460 -156 -789 -250 -117 -34 -234 -68 -260 -76 -50 -17 -167 -87
-191 -115 -8 -10 -55 -39 -105 -65 -49 -26 -102 -57 -117 -68 -39 -30 -148
-194 -199 -301 -45 -93 -99 -155 -265 -306 -36 -32 -73 -77 -88 -108 -35 -68
-129 -354 -167 -505 -32 -127 -52 -182 -177 -486 -86 -211 -191 -560 -199
-665 -9 -116 -134 -679 -162 -733 -18 -35 -31 -128 -37 -255 -6 -146 -25 -307
-54 -467 -11 -58 -22 -127 -25 -155 -5 -44 -12 -82 -31 -195 -3 -14 -7 -34
-11 -44 -3 -11 -7 -61 -9 -111 -3 -99 -26 -178 -102 -357 -46 -107 -50 -121
-96 -323 -41 -181 -44 -197 -51 -350 -3 -66 -8 -139 -11 -162 l-6 -43 10347 0
c5691 0 10345 3 10343 8 -18 36 -30 70 -53 152 -15 52 -34 105 -42 118 -8 13
-16 31 -18 40 -8 39 -26 72 -45 84 -11 7 -20 23 -20 36 0 12 -7 39 -16 60 -9
20 -17 45 -19 54 -2 10 -13 27 -24 40 -12 12 -21 34 -21 49 0 16 -6 32 -13 36
-7 4 -21 35 -31 68 -10 33 -35 96 -56 140 -20 44 -44 103 -53 130 -31 101 -47
162 -47 182 0 11 -7 33 -15 49 -8 16 -19 63 -26 104 -6 41 -16 86 -21 100 -5
14 -16 64 -24 112 -20 123 -87 307 -138 376 -23 31 -52 73 -63 92 -12 19 -32
46 -45 60 -13 14 -41 47 -63 74 -44 54 -109 100 -131 92 -7 -3 -19 0 -26 7
-26 24 -187 97 -249 113 -35 8 -139 40 -231 70 -91 30 -173 54 -181 54 -8 0
-17 -7 -21 -15 -3 -8 -16 -15 -28 -15 -20 1 -21 2 -5 11 9 5 17 16 17 23 0 15
-64 74 -136 126 -96 68 -145 113 -165 151 -11 22 -24 39 -30 39 -5 0 -22 11
-37 25 -15 14 -33 25 -40 25 -7 0 -15 7 -18 15 -4 8 -26 24 -50 34 -24 11 -47
27 -50 35 -3 8 -12 12 -21 9 -8 -3 -18 -2 -22 3 -3 5 -32 25 -65 44 -32 19
-72 53 -90 75 -20 26 -37 39 -48 37 -10 -2 -18 1 -18 6 0 5 -10 12 -22 16 -13
3 -45 26 -73 51 -27 24 -56 45 -63 45 -7 0 -34 20 -60 45 -26 25 -50 45 -55
45 -4 0 -29 19 -55 43 -26 24 -85 72 -132 107 -47 35 -107 83 -135 106 -27 22
-68 53 -90 66 -35 22 -191 142 -205 158 -3 3 -32 27 -65 54 -33 26 -94 78
-135 115 -189 170 -331 287 -360 296 -11 4 -20 11 -20 16 0 5 -5 9 -12 9 -7 0
-23 11 -37 24 -15 13 -83 53 -153 90 -70 36 -153 82 -185 102 -31 21 -89 52
-128 70 -39 18 -95 55 -125 83 -30 27 -76 60 -102 72 -27 12 -48 26 -48 31 0
4 -6 8 -13 8 -8 0 -34 20 -59 44 -24 24 -76 66 -114 92 -38 26 -77 56 -86 67
-10 11 -39 30 -65 44 -67 33 -148 85 -163 103 -3 4 -27 17 -53 30 -26 13 -70
42 -97 64 -26 23 -81 61 -121 86 -61 38 -172 120 -189 140 -34 41 -309 250
-470 357 -58 39 -158 108 -223 154 -297 212 -297 212 -362 221 -80 11 -125 26
-125 43 0 8 -9 17 -20 20 -11 3 -26 12 -32 19 -7 6 -44 32 -83 57 -38 25 -112
86 -163 136 -68 66 -104 93 -135 103 -48 14 -177 79 -177 89 0 4 -25 4 -56 1
-76 -8 -114 11 -194 101 -81 91 -229 307 -281 411 -97 192 -119 323 -116 673
3 238 3 240 31 308 16 37 41 81 57 99 16 17 39 45 52 62 12 17 32 39 44 49 12
10 34 40 49 67 15 28 31 50 35 50 5 0 16 14 25 32 9 17 25 40 35 51 10 12 19
26 19 32 0 6 15 18 32 26 25 10 44 34 78 95 25 45 60 99 78 120 17 21 32 44
32 51 0 27 64 125 117 181 64 65 97 114 107 157 4 17 18 44 32 62 13 17 22 38
19 45 -7 18 6 35 30 39 12 3 20 13 21 26 1 12 8 33 16 45 9 13 23 50 33 83 29
98 34 109 68 133 20 14 26 22 15 22 -21 0 -33 32 -16 45 7 6 27 37 44 70 27
52 29 64 21 93 -9 28 -7 37 12 60 12 15 25 36 30 47 17 42 43 121 48 149 3 15
21 57 39 93 27 50 32 69 24 83 -7 14 -6 30 4 57 8 21 25 72 36 113 12 41 26
79 31 84 5 6 9 21 9 34 0 33 19 24 53 -26 43 -63 91 -83 213 -90 98 -5 106 -3
161 23 73 36 239 199 275 270 56 111 95 251 113 410 4 28 10 75 15 105 5 30
14 102 20 160 6 58 12 114 14 125 2 11 14 90 26 175 21 144 63 301 122 460 46
125 97 376 123 600 10 89 16 144 20 165 5 34 -32 160 -65 218 -81 144 -181
194 -303 150 -65 -23 -80 -8 -45 44 32 46 97 264 119 393 23 139 29 541 16
1025 -9 301 -14 383 -32 455 -8 30 -16 77 -19 103 -3 26 -12 71 -21 100 -8 29
-17 81 -20 117 -11 139 -22 193 -55 265 -10 22 -42 105 -71 185 -66 182 -121
312 -168 397 -27 51 -47 73 -81 93 -36 21 -46 32 -48 58 -2 22 -20 49 -62 93
-33 34 -62 70 -65 79 -3 8 -18 24 -35 33 -18 11 -33 30 -38 50 -6 23 -18 37
-45 50 -29 13 -44 31 -64 74 -15 31 -55 95 -90 141 -35 47 -63 88 -63 93 0 4
-21 22 -47 40 -68 47 -83 65 -83 100 0 27 -13 45 -79 108 -44 42 -82 86 -85
97 -10 33 -245 266 -301 299 -27 15 -79 59 -115 96 -36 37 -83 77 -105 89 -22
11 -47 25 -55 30 -8 5 -52 32 -97 60 -46 27 -86 50 -91 50 -4 0 -25 12 -47 27
-50 34 -166 99 -315 176 -186 96 -505 192 -800 241 -19 3 -120 8 -225 11 -104
3 -227 8 -271 10 -45 2 -83 3 -85 1z"/>
<path d="M8470 12248 c0 -4 7 -8 15 -8 8 0 15 4 15 8 0 5 -7 9 -15 9 -8 0 -15
-4 -15 -9z"/>
<path d="M8606 11771 c-4 -5 -2 -12 3 -15 5 -4 12 -2 15 3 4 5 2 12 -3 15 -5
4 -12 2 -15 -3z"/>
<path d="M8730 11400 c0 -5 5 -10 10 -10 6 0 10 5 10 10 0 6 -4 10 -10 10 -5
0 -10 -4 -10 -10z"/>
</g>
</svg>
